<svg width="10" height="16" viewBox="0 0 10 16" fill="none" xmlns="http://www.w3.org/2000/svg">
<path d="M7.96875 0.875H1.40625C0.615234 0.875 0 1.51953 0 2.28125V14.4688C0 15.2598 0.615234 15.875 1.40625 15.875H7.96875C8.73047 15.875 9.375 15.2598 9.375 14.4688V2.28125C9.375 1.51953 8.73047 0.875 7.96875 0.875ZM4.6875 14.9375C4.16016 14.9375 3.75 14.5273 3.75 14C3.75 13.502 4.16016 13.0625 4.6875 13.0625C5.18555 13.0625 5.625 13.502 5.625 14C5.625 14.5273 5.18555 14.9375 4.6875 14.9375ZM7.96875 11.7734C7.96875 11.9785 7.79297 12.125 7.61719 12.125H1.75781C1.55273 12.125 1.40625 11.9785 1.40625 11.7734V2.63281C1.40625 2.45703 1.55273 2.28125 1.75781 2.28125H7.61719C7.79297 2.28125 7.96875 2.45703 7.96875 2.63281V11.7734Z" fill="#FFD947"/>
</svg>
