<svg width="16" height="19" viewBox="0 0 16 19" fill="none" xmlns="http://www.w3.org/2000/svg">
<path d="M15.3281 17.125H14.625V1.09375C14.625 0.636719 14.2383 0.25 13.7812 0.25H1.96875C1.47656 0.25 1.125 0.636719 1.125 1.09375V17.125H0.421875C0.175781 17.125 0 17.3359 0 17.5469V18.25H15.75V17.5469C15.75 17.3359 15.5391 17.125 15.3281 17.125ZM4.5 2.92188C4.5 2.71094 4.67578 2.5 4.92188 2.5H6.32812C6.53906 2.5 6.75 2.71094 6.75 2.92188V4.32812C6.75 4.57422 6.53906 4.75 6.32812 4.75H4.92188C4.67578 4.75 4.5 4.57422 4.5 4.32812V2.92188ZM4.5 6.29688C4.5 6.08594 4.67578 5.875 4.92188 5.875H6.32812C6.53906 5.875 6.75 6.08594 6.75 6.29688V7.70312C6.75 7.94922 6.53906 8.125 6.32812 8.125H4.92188C4.67578 8.125 4.5 7.94922 4.5 7.70312V6.29688ZM6.32812 11.5H4.92188C4.67578 11.5 4.5 11.3242 4.5 11.0781V9.67188C4.5 9.46094 4.67578 9.25 4.92188 9.25H6.32812C6.53906 9.25 6.75 9.46094 6.75 9.67188V11.0781C6.75 11.3242 6.53906 11.5 6.32812 11.5ZM9 17.125H6.75V14.1719C6.75 13.9609 6.92578 13.75 7.17188 13.75H8.57812C8.78906 13.75 9 13.9609 9 14.1719V17.125ZM11.25 11.0781C11.25 11.3242 11.0391 11.5 10.8281 11.5H9.42188C9.17578 11.5 9 11.3242 9 11.0781V9.67188C9 9.46094 9.17578 9.25 9.42188 9.25H10.8281C11.0391 9.25 11.25 9.46094 11.25 9.67188V11.0781ZM11.25 7.70312C11.25 7.94922 11.0391 8.125 10.8281 8.125H9.42188C9.17578 8.125 9 7.94922 9 7.70312V6.29688C9 6.08594 9.17578 5.875 9.42188 5.875H10.8281C11.0391 5.875 11.25 6.08594 11.25 6.29688V7.70312ZM11.25 4.32812C11.25 4.57422 11.0391 4.75 10.8281 4.75H9.42188C9.17578 4.75 9 4.57422 9 4.32812V2.92188C9 2.71094 9.17578 2.5 9.42188 2.5H10.8281C11.0391 2.5 11.25 2.71094 11.25 2.92188V4.32812Z" fill="#979797"/>
</svg>
