<svg width="31" height="30" viewBox="0 0 31 30" fill="none" xmlns="http://www.w3.org/2000/svg">
<circle cx="15.7139" cy="15" r="13.9286" stroke="white" stroke-opacity="0.5" stroke-width="2.14286"/>
<g clip-path="url(#clip0)">
<path d="M15.8615 22.5004C15.8118 22.5004 15.7622 22.5004 15.7122 22.5002C14.5364 22.5031 13.45 22.4732 12.3935 22.4089C11.4249 22.35 10.5407 22.0152 9.83641 21.441C9.15686 20.8868 8.6928 20.1376 8.45717 19.2143C8.25209 18.4104 8.24122 17.6214 8.2308 16.8582C8.22325 16.3106 8.21547 15.6617 8.21387 15.0018C8.21547 14.3392 8.22325 13.6903 8.2308 13.1427C8.24122 12.3796 8.25209 11.5906 8.45717 10.7866C8.6928 9.86331 9.15686 9.11406 9.83641 8.55994C10.5407 7.98568 11.4249 7.65094 12.3936 7.592C13.4501 7.5278 14.5367 7.49781 15.715 7.50068C16.8911 7.49816 17.9772 7.5278 19.0337 7.592C20.0023 7.65094 20.8865 7.98568 21.5908 8.55994C22.2704 9.11406 22.7344 9.86331 22.97 10.7866C23.1751 11.5905 23.1859 12.3796 23.1964 13.1427C23.2039 13.6903 23.2118 14.3392 23.2133 14.9991V15.0018C23.2118 15.6617 23.2039 16.3106 23.1964 16.8582C23.1859 17.6213 23.1752 18.4103 22.97 19.2143C22.7344 20.1376 22.2704 20.8868 21.5908 21.441C20.8865 22.0152 20.0023 22.35 19.0337 22.4089C18.0219 22.4705 16.9826 22.5004 15.8615 22.5004ZM15.7122 21.3283C16.8688 21.3311 17.9308 21.3019 18.9625 21.2392C19.6949 21.1947 20.33 20.957 20.8502 20.5327C21.3311 20.1406 21.6623 19.5995 21.8345 18.9245C22.0053 18.2554 22.0151 17.5369 22.0246 16.8421C22.032 16.2982 22.0398 15.6539 22.0414 15.0004C22.0398 14.3469 22.032 13.7027 22.0246 13.1587C22.0151 12.464 22.0053 11.7455 21.8345 11.0763C21.6623 10.4013 21.3311 9.86022 20.8502 9.46803C20.33 9.04391 19.6949 8.80622 18.9625 8.7617C17.9308 8.69887 16.8688 8.66992 15.7149 8.67244C14.5585 8.66969 13.4963 8.69887 12.4647 8.7617C11.7322 8.80622 11.0972 9.04391 10.577 9.46803C10.0961 9.86022 9.76488 10.4013 9.59265 11.0763C9.42191 11.7455 9.41206 12.4639 9.40257 13.1587C9.39513 13.7031 9.38734 14.3478 9.38574 15.0018C9.38734 15.653 9.39513 16.2977 9.40257 16.8421C9.41206 17.5369 9.42191 18.2554 9.59265 18.9245C9.76488 19.5995 10.0961 20.1406 10.577 20.5327C11.0972 20.9569 11.7322 21.1946 12.4647 21.2391C13.4963 21.3019 14.5587 21.3312 15.7122 21.3283ZM15.6842 18.6626C13.665 18.6626 12.0221 17.0198 12.0221 15.0004C12.0221 12.9811 13.665 11.3383 15.6842 11.3383C17.7035 11.3383 19.3463 12.9811 19.3463 15.0004C19.3463 17.0198 17.7035 18.6626 15.6842 18.6626ZM15.6842 12.5102C14.3112 12.5102 13.194 13.6274 13.194 15.0004C13.194 16.3735 14.3112 17.4907 15.6842 17.4907C17.0574 17.4907 18.1745 16.3735 18.1745 15.0004C18.1745 13.6274 17.0574 12.5102 15.6842 12.5102ZM19.7565 10.1665C19.2711 10.1665 18.8776 10.5599 18.8776 11.0454C18.8776 11.5308 19.2711 11.9243 19.7565 11.9243C20.242 11.9243 20.6354 11.5308 20.6354 11.0454C20.6354 10.5599 20.242 10.1665 19.7565 10.1665Z" fill="white" fill-opacity="0.5"/>
</g>
<defs>
<clipPath id="clip0">
<rect width="15" height="15" fill="white" transform="translate(8.21387 7.5)"/>
</clipPath>
</defs>
</svg>
