<svg width="30" height="30" viewBox="0 0 30 30" fill="none" xmlns="http://www.w3.org/2000/svg">
<circle cx="15" cy="15" r="13.9286" stroke="white" stroke-opacity="0.5" stroke-width="2.14286"/>
<path d="M15.7734 7.35742C12.3535 7.35742 9 9.61523 9 13.3008C9 15.625 10.2949 16.9531 11.0918 16.9531C11.4238 16.9531 11.623 16.0566 11.623 15.791C11.623 15.4922 10.8262 14.8281 10.8262 13.5332C10.8262 10.877 12.8516 8.98438 15.4746 8.98438C17.7656 8.98438 19.4258 10.2793 19.4258 12.6367C19.4258 14.3965 18.7285 17.6836 16.4375 17.6836C15.6074 17.6836 14.877 17.0859 14.877 16.2559C14.877 14.9941 15.7734 13.7656 15.7734 12.4707C15.7734 10.2793 12.6523 10.6777 12.6523 13.334C12.6523 13.8984 12.7188 14.4961 12.9844 15.0273C12.5195 16.9863 11.5898 19.9414 11.5898 21.9668C11.5898 22.5977 11.6562 23.1953 11.7227 23.8262C11.8223 23.959 11.7891 23.959 11.9551 23.8926C13.6152 21.6016 13.582 21.1367 14.3125 18.1484C14.7441 18.9121 15.7734 19.3438 16.6367 19.3438C20.1562 19.3438 21.75 15.8906 21.75 12.8027C21.75 9.51562 18.8945 7.35742 15.7734 7.35742Z" fill="white" fill-opacity="0.5"/>
</svg>
