<svg width="31" height="30" viewBox="0 0 31 30" fill="none" xmlns="http://www.w3.org/2000/svg">
<circle cx="15.4277" cy="15" r="13.9286" stroke="white" stroke-opacity="0.5" stroke-width="2.14286"/>
<g clip-path="url(#clip0)">
<path d="M10.6971 9.3418C11.1308 9.3418 11.4703 9.47852 11.7171 9.75069C11.9638 10.0229 12.0961 10.3663 12.1139 10.7777C12.1139 11.1841 11.9753 11.5268 11.6961 11.8054C11.4169 12.0833 11.0354 12.2225 10.5527 12.2225H10.5355C10.0643 12.2225 9.69104 12.0833 9.41315 11.8054C9.13843 11.5268 8.99916 11.1841 8.99916 10.7777C8.99916 10.3599 9.15051 10.0165 9.45575 9.74624C9.76099 9.47661 10.1756 9.3418 10.6971 9.3418ZM9.18167 13.3634H12.1597V21.7295H9.18167V13.3634ZM22.9277 16.9328V21.7295H19.9504V17.2552C19.9504 16.686 19.8333 16.2301 19.6006 15.8829C19.3691 15.5388 18.9818 15.3665 18.435 15.3665C18.0184 15.3665 17.6839 15.4721 17.4346 15.6845C17.1847 15.8956 17.0035 16.129 16.8941 16.3853C16.8585 16.4781 16.8362 16.5805 16.8242 16.6943C16.8127 16.8062 16.8076 16.9277 16.8076 17.0555V21.7302H13.8118C13.8245 20.3146 13.8315 19.0161 13.8315 17.8383V16.3509V14.9996C13.8315 14.5881 13.8271 14.2371 13.8201 13.9459C13.8163 13.6572 13.8118 13.4619 13.8118 13.3634H16.8076V14.5481L16.7911 14.5824H16.8076V14.5481C16.9005 14.4025 17.0194 14.2505 17.1644 14.0909C17.3113 13.9319 17.4868 13.7831 17.7005 13.6457C17.9122 13.5096 18.1672 13.3977 18.4661 13.3068C18.7669 13.2171 19.109 13.1726 19.4988 13.1726C19.9834 13.1726 20.4362 13.2464 20.8584 13.3945C21.2794 13.5427 21.6413 13.7748 21.949 14.0915C22.2549 14.4063 22.4947 14.798 22.6689 15.266C22.8425 15.7328 22.9277 16.2886 22.9277 16.9328Z" fill="white" fill-opacity="0.5"/>
</g>
<defs>
<clipPath id="clip0">
<rect width="13.9286" height="13.9286" fill="white" transform="translate(8.99958 8.57153)"/>
</clipPath>
</defs>
</svg>
