<svg width="16" height="16" viewBox="0 0 16 16" fill="none" xmlns="http://www.w3.org/2000/svg">
<path d="M14.3926 15.4434L15.0957 12.3965C15.1836 12.0742 15.0078 11.7227 14.6855 11.5762L11.4043 10.1699C11.1113 10.0527 10.7891 10.1406 10.584 10.375L9.11914 12.1621C6.89258 11.1074 5.01758 9.26172 3.93359 6.97656L5.7207 5.51172C5.95508 5.30664 6.04297 4.98437 5.92578 4.69141L4.51953 1.41016C4.37305 1.08789 4.02148 0.941406 3.69922 1L0.652344 1.70312C0.330078 1.79101 0.125 2.05469 0.125 2.40625C0.125 9.90625 6.18945 16 13.7187 16C14.041 16 14.3047 15.7656 14.3926 15.4434Z" fill="#FFD947"/>
</svg>
