<svg width="14" height="19" viewBox="0 0 14 19" fill="none" xmlns="http://www.w3.org/2000/svg">
<path d="M12.9375 1.9375C13.2188 1.9375 13.5 1.69141 13.5 1.375V0.8125C13.5 0.53125 13.2188 0.25 12.9375 0.25H0.5625C0.246094 0.25 0 0.53125 0 0.8125V1.375C0 1.69141 0.246094 1.9375 0.5625 1.9375H1.125V7.45703C0.386719 7.80859 0 8.23047 0 8.6875C0 11.0781 1.19531 13.1523 3.02344 14.3477L2.28516 16.8086C2.07422 17.5469 2.60156 18.25 3.375 18.25H10.125C10.8633 18.25 11.3906 17.5469 11.1797 16.8086L10.4414 14.3477C12.2695 13.1523 13.5 11.0781 13.5 8.6875C13.5 8.23047 13.0781 7.80859 12.375 7.45703V1.9375H12.9375ZM2.8125 2.78125C2.8125 2.64062 2.91797 2.5 3.09375 2.5H4.78125C4.92188 2.5 5.0625 2.64062 5.0625 2.78125V3.34375C5.0625 3.51953 4.92188 3.625 4.78125 3.625H3.09375C2.91797 3.625 2.8125 3.51953 2.8125 3.34375V2.78125ZM6.75 9.8125C4.00781 9.8125 1.82812 9.32031 1.82812 8.6875C1.82812 8.08984 4.00781 7.5625 6.75 7.5625C9.45703 7.5625 11.6367 8.08984 11.6367 8.6875C11.6367 9.32031 9.45703 9.8125 6.75 9.8125Z" fill="#979797"/>
</svg>
