<svg width="31" height="30" viewBox="0 0 31 30" fill="none" xmlns="http://www.w3.org/2000/svg">
<circle cx="15.7139" cy="15" r="13.9286" stroke="white" stroke-opacity="0.5" stroke-width="2.14286"/>
<path d="M23.1367 11.5938C23.8398 11.0664 24.4727 10.4336 24.9648 9.69531C24.332 9.97656 23.5938 10.1875 22.8555 10.2578C23.6289 9.80078 24.1914 9.09766 24.4727 8.21875C23.7695 8.64062 22.9609 8.95703 22.1523 9.13281C21.4492 8.39453 20.5 7.97266 19.4453 7.97266C17.4062 7.97266 15.7539 9.625 15.7539 11.6641C15.7539 11.9453 15.7891 12.2266 15.8594 12.5078C12.8008 12.332 10.0586 10.8555 8.23047 8.64062C7.91406 9.16797 7.73828 9.80078 7.73828 10.5039C7.73828 11.7695 8.37109 12.8945 9.39062 13.5625C8.79297 13.5273 8.19531 13.3867 7.70312 13.1055V13.1406C7.70312 14.9336 8.96875 16.4102 10.6562 16.7617C10.375 16.832 10.0234 16.9023 9.70703 16.9023C9.46094 16.9023 9.25 16.8672 9.00391 16.832C9.46094 18.3086 10.832 19.3633 12.4492 19.3984C11.1836 20.3828 9.60156 20.9805 7.87891 20.9805C7.5625 20.9805 7.28125 20.9453 7 20.9102C8.61719 21.9648 10.5508 22.5625 12.6602 22.5625C19.4453 22.5625 23.1367 16.9727 23.1367 12.0859C23.1367 11.9102 23.1367 11.7695 23.1367 11.5938Z" fill="white" fill-opacity="0.5"/>
</svg>
