<svg width="14" height="14" viewBox="0 0 14 14" fill="none" xmlns="http://www.w3.org/2000/svg">
<path d="M11.1328 2.74609C9.93164 1.51562 8.29101 0.8125 6.5332 0.8125C2.95898 0.8125 0.0292959 3.74219 0.0292959 7.31641C0.0292959 8.48828 0.351562 9.60156 0.908202 10.5684L-9.53674e-07 13.9375L3.42773 13.0586C4.39453 13.5566 5.44922 13.8496 6.5332 13.8496C10.1367 13.8496 13.125 10.9199 13.125 7.3457C13.125 5.58789 12.3633 3.97656 11.1328 2.74609ZM6.5332 12.7363C5.56641 12.7363 4.62891 12.4727 3.7793 11.9746L3.60351 11.8574L1.55273 12.4141L2.10937 10.4219L1.96289 10.2168C1.43555 9.33789 1.14258 8.3418 1.14258 7.31641C1.14258 4.35742 3.57422 1.92578 6.5625 1.92578C7.99805 1.92578 9.3457 2.48242 10.3711 3.50781C11.3965 4.5332 12.0117 5.88086 12.0117 7.3457C12.0117 10.3047 9.52148 12.7363 6.5332 12.7363ZM9.52148 8.69336C9.3457 8.60547 8.55469 8.22461 8.4082 8.16602C8.26172 8.10742 8.14453 8.07812 8.02734 8.25391C7.93945 8.40039 7.61719 8.78125 7.5293 8.89844C7.41211 8.98633 7.32422 9.01562 7.17773 8.92773C6.21094 8.45898 5.5957 8.07812 4.95117 6.99414C4.77539 6.70117 5.12695 6.73047 5.41992 6.11523C5.47851 5.99805 5.44922 5.91016 5.41992 5.82227C5.39062 5.73438 5.03906 4.94336 4.92187 4.62109C4.77539 4.29883 4.6582 4.32812 4.54101 4.32812C4.45312 4.32812 4.33594 4.32812 4.24805 4.32812C4.13086 4.32812 3.95508 4.35742 3.80859 4.5332C3.66211 4.70898 3.25195 5.08984 3.25195 5.88086C3.25195 6.70117 3.80859 7.46289 3.89648 7.58008C3.98437 7.66797 5.03906 9.30859 6.67969 10.0117C7.70508 10.4805 8.11523 10.5098 8.64258 10.4219C8.93555 10.3926 9.58008 10.041 9.72656 9.66016C9.87305 9.2793 9.87305 8.95703 9.81445 8.89844C9.78516 8.81055 9.66797 8.78125 9.52148 8.69336Z" fill="#FFD947"/>
</svg>
