<svg width="31" height="30" viewBox="0 0 31 30" fill="none" xmlns="http://www.w3.org/2000/svg">
<circle cx="15.4277" cy="15" r="13.9286" stroke="white" stroke-opacity="0.5" stroke-width="2.14286"/>
<path d="M24.2285 11.2754C24.0293 10.4785 23.3984 9.84766 22.6348 9.64844C21.207 9.25 15.5625 9.25 15.5625 9.25C15.5625 9.25 9.88477 9.25 8.45703 9.64844C7.69336 9.84766 7.0625 10.4785 6.86328 11.2754C6.46484 12.6699 6.46484 15.6582 6.46484 15.6582C6.46484 15.6582 6.46484 18.6133 6.86328 20.041C7.0625 20.8379 7.69336 21.4355 8.45703 21.6348C9.88477 22 15.5625 22 15.5625 22C15.5625 22 21.207 22 22.6348 21.6348C23.3984 21.4355 24.0293 20.8379 24.2285 20.041C24.627 18.6133 24.627 15.6582 24.627 15.6582C24.627 15.6582 24.627 12.6699 24.2285 11.2754ZM13.7031 18.3477V12.9688L18.418 15.6582L13.7031 18.3477Z" fill="white" fill-opacity="0.5"/>
</svg>
